<svg width="53" height="35" viewBox="0 0 53 35" fill="none" xmlns="http://www.w3.org/2000/svg">
<path d="M31.6953 30.7891C31.4609 31.2422 31.1641 31.6797 30.8047 32.1016C30.4609 32.5234 30.0625 32.8984 29.6094 33.2266C29.1719 33.5391 28.7031 33.7969 28.2031 34C27.7031 34.1875 27.1875 34.2812 26.6562 34.2812C25.7812 34.2812 25.0156 34.1172 24.3594 33.7891C23.7187 33.4609 23.1719 33.0234 22.7187 32.4766C22.2812 31.9141 21.9531 31.2734 21.7344 30.5547C21.5156 29.8359 21.4062 29.0781 21.4062 28.2812L21.4062 19.2109C21.1875 20.2109 20.9375 21.2891 20.6562 22.4453C20.375 23.5859 20.0312 24.7266 19.625 25.8672C19.2187 26.9922 18.7422 28.0781 18.1953 29.125C17.6484 30.1719 17 31.1016 16.25 31.9141C15.5156 32.7109 14.6719 33.3516 13.7187 33.8359C12.7656 34.3047 11.6797 34.5391 10.4609 34.5391C8.97656 34.5391 7.64844 34.2578 6.47656 33.6953C5.30469 33.1328 4.30469 32.3594 3.47656 31.375C2.66406 30.3906 2.03906 29.2266 1.60156 27.8828C1.17969 26.5234 0.96875 25.0547 0.96875 23.4766C0.96875 21.6016 1.26562 19.7266 1.85937 17.8516C2.45312 15.9609 3.26562 14.1484 4.29687 12.4141C5.34375 10.6797 6.57812 9.07031 8 7.58594C9.4375 6.10156 11 4.8125 12.6875 3.71875C14.375 2.625 16.1484 1.77344 18.0078 1.16406C19.8828 0.554688 21.7734 0.265625 23.6797 0.296875H23.9609V1.35156C22.3203 1.42969 20.7422 1.78906 19.2266 2.42969C17.7109 3.05469 16.2891 3.88281 14.9609 4.91406C13.6484 5.92969 12.4453 7.10938 11.3516 8.45312C10.2578 9.79688 9.32031 11.2266 8.53906 12.7422C7.77344 14.2578 7.17187 15.8203 6.73437 17.4297C6.3125 19.0391 6.10156 20.625 6.10156 22.1875C6.10156 22.7969 6.14062 23.4531 6.21875 24.1562C6.29687 24.8438 6.42969 25.5391 6.61719 26.2422C6.80469 26.9297 7.04687 27.5938 7.34375 28.2344C7.64062 28.8594 8.00781 29.4219 8.44531 29.9219C8.89844 30.4062 9.42187 30.7969 10.0156 31.0938C10.6094 31.375 11.2891 31.5156 12.0547 31.5156C12.9766 31.5156 13.8125 31.2344 14.5625 30.6719C15.3125 30.1094 15.9922 29.3516 16.6016 28.3984C17.2109 27.4453 17.75 26.3359 18.2187 25.0703C18.7031 23.8047 19.125 22.4688 19.4844 21.0625C19.8438 19.6562 20.1406 18.2266 20.375 16.7734C20.625 15.3047 20.8203 13.8984 20.9609 12.5547C21.1172 11.2109 21.2266 9.96875 21.2891 8.82812C21.3672 7.67188 21.4062 6.70312 21.4062 5.92188L26.2578 4.14063L26.2578 29.0547C26.2578 29.3672 26.2891 29.6797 26.3516 29.9922C26.4141 30.3047 26.5234 30.5938 26.6797 30.8594C26.8359 31.1094 27.0312 31.3125 27.2656 31.4688C27.5156 31.625 27.8203 31.7031 28.1797 31.7031C28.7266 31.7031 29.2422 31.5391 29.7266 31.2109C30.2109 30.8828 30.6094 30.5156 30.9219 30.1094L31.6953 30.7891ZM52.4113 12.1563C52.4113 14.1406 52.0363 16.0625 51.2863 17.9219C50.5519 19.7656 49.5519 21.5 48.2863 23.125C47.0206 24.75 45.5441 26.2422 43.8566 27.6016C42.1847 28.9609 40.4113 30.1406 38.5363 31.1406C36.6613 32.1406 34.7394 32.9375 32.7706 33.5312C30.8019 34.125 28.9034 34.4766 27.0753 34.5859L27.0753 8.3125L31.9034 6.60156V32.125C34.1066 31.4844 36.1222 30.5625 37.9503 29.3594C39.7941 28.1406 41.38 26.7031 42.7081 25.0469C44.0363 23.3906 45.0675 21.5391 45.8019 19.4922C46.5519 17.4453 46.9269 15.2578 46.9269 12.9297C46.9269 11.6016 46.755 10.3359 46.4113 9.13281C46.0831 7.91406 45.5675 6.85156 44.8644 5.94531C44.1769 5.02344 43.3019 4.29688 42.2394 3.76563C41.1769 3.21875 39.9113 2.94531 38.4425 2.94531C37.2394 2.94531 36.0284 3.07813 34.8097 3.34375C33.6066 3.60938 32.4269 3.98438 31.2706 4.46875C30.13 4.9375 29.0284 5.5 27.9659 6.15625C26.9191 6.8125 25.9503 7.53125 25.0597 8.3125L24.3331 7.51562C25.2706 6.5 26.38 5.54688 27.6613 4.65625C28.9425 3.75 30.3097 2.96094 31.7628 2.28906C33.2159 1.60156 34.7081 1.0625 36.2394 0.671875C37.7706 0.265625 39.255 0.0625 40.6925 0.0625C42.63 0.0625 44.3331 0.351562 45.8019 0.929688C47.2706 1.50781 48.4894 2.32813 49.4581 3.39063C50.4425 4.45312 51.1769 5.72656 51.6613 7.21094C52.1613 8.69531 52.4113 10.3438 52.4113 12.1563Z" fill="#C1C1C1"/>
</svg>
